<svg class="rich-terminal" viewBox="0 0 1360 879.5999999999999" xmlns="http://www.w3.org/2000/svg">
    <!-- Generated with Rich https://www.textualize.io -->
    <style>

    @font-face {
        font-family: "Fira Code";
        src: local("FiraCode-Regular"),
                url("https://cdnjs.cloudflare.com/ajax/libs/firacode/6.2.0/woff2/FiraCode-Regular.woff2") format("woff2"),
                url("https://cdnjs.cloudflare.com/ajax/libs/firacode/6.2.0/woff/FiraCode-Regular.woff") format("woff");
        font-style: normal;
        font-weight: 400;
    }
    @font-face {
        font-family: "Fira Code";
        src: local("FiraCode-Bold"),
                url("https://cdnjs.cloudflare.com/ajax/libs/firacode/6.2.0/woff2/FiraCode-Bold.woff2") format("woff2"),
                url("https://cdnjs.cloudflare.com/ajax/libs/firacode/6.2.0/woff/FiraCode-Bold.woff") format("woff");
        font-style: bold;
        font-weight: 700;
    }

    .terminal-2854313290-matrix {
        font-family: Fira Code, monospace;
        font-size: 20px;
        line-height: 24.4px;
        font-variant-east-asian: full-width;
    }

    .terminal-2854313290-title {
        font-size: 18px;
        font-weight: bold;
        font-family: arial;
    }

    .terminal-2854313290-r1 { fill: #c5c8c6 }
.terminal-2854313290-r2 { fill: #979797 }
.terminal-2854313290-r3 { fill: #cacaca;font-weight: bold }
.terminal-2854313290-r4 { fill: #8a8a8a }
.terminal-2854313290-r5 { fill: #e4e4e4 }
.terminal-2854313290-r6 { fill: #3a3a3a }
.terminal-2854313290-r7 { fill: #959595 }
.terminal-2854313290-r8 { fill: #c4c4c4 }
.terminal-2854313290-r9 { fill: #e0e0e0 }
.terminal-2854313290-r10 { fill: #4f4f4f }
.terminal-2854313290-r11 { fill: #1a1a1a;font-weight: bold }
.terminal-2854313290-r12 { fill: #c3c3c3 }
.terminal-2854313290-r13 { fill: #ececec }
.terminal-2854313290-r14 { fill: #565656 }
.terminal-2854313290-r15 { fill: #adadad }
.terminal-2854313290-r16 { fill: #747474 }
.terminal-2854313290-r17 { fill: #a4a4a4 }
    </style>

    <defs>
    <clipPath id="terminal-2854313290-clip-terminal">
      <rect x="0" y="0" width="1341.0" height="828.5999999999999" />
    </clipPath>
    <clipPath id="terminal-2854313290-line-0">
    <rect x="0" y="1.5" width="1342" height="24.65"/>
            </clipPath>
<clipPath id="terminal-2854313290-line-1">
    <rect x="0" y="25.9" width="1342" height="24.65"/>
            </clipPath>
<clipPath id="terminal-2854313290-line-2">
    <rect x="0" y="50.3" width="1342" height="24.65"/>
            </clipPath>
<clipPath id="terminal-2854313290-line-3">
    <rect x="0" y="74.7" width="1342" height="24.65"/>
            </clipPath>
<clipPath id="terminal-2854313290-line-4">
    <rect x="0" y="99.1" width="1342" height="24.65"/>
            </clipPath>
<clipPath id="terminal-2854313290-line-5">
    <rect x="0" y="123.5" width="1342" height="24.65"/>
            </clipPath>
<clipPath id="terminal-2854313290-line-6">
    <rect x="0" y="147.9" width="1342" height="24.65"/>
            </clipPath>
<clipPath id="terminal-2854313290-line-7">
    <rect x="0" y="172.3" width="1342" height="24.65"/>
            </clipPath>
<clipPath id="terminal-2854313290-line-8">
    <rect x="0" y="196.7" width="1342" height="24.65"/>
            </clipPath>
<clipPath id="terminal-2854313290-line-9">
    <rect x="0" y="221.1" width="1342" height="24.65"/>
            </clipPath>
<clipPath id="terminal-2854313290-line-10">
    <rect x="0" y="245.5" width="1342" height="24.65"/>
            </clipPath>
<clipPath id="terminal-2854313290-line-11">
    <rect x="0" y="269.9" width="1342" height="24.65"/>
            </clipPath>
<clipPath id="terminal-2854313290-line-12">
    <rect x="0" y="294.3" width="1342" height="24.65"/>
            </clipPath>
<clipPath id="terminal-2854313290-line-13">
    <rect x="0" y="318.7" width="1342" height="24.65"/>
            </clipPath>
<clipPath id="terminal-2854313290-line-14">
    <rect x="0" y="343.1" width="1342" height="24.65"/>
            </clipPath>
<clipPath id="terminal-2854313290-line-15">
    <rect x="0" y="367.5" width="1342" height="24.65"/>
            </clipPath>
<clipPath id="terminal-2854313290-line-16">
    <rect x="0" y="391.9" width="1342" height="24.65"/>
            </clipPath>
<clipPath id="terminal-2854313290-line-17">
    <rect x="0" y="416.3" width="1342" height="24.65"/>
            </clipPath>
<clipPath id="terminal-2854313290-line-18">
    <rect x="0" y="440.7" width="1342" height="24.65"/>
            </clipPath>
<clipPath id="terminal-2854313290-line-19">
    <rect x="0" y="465.1" width="1342" height="24.65"/>
            </clipPath>
<clipPath id="terminal-2854313290-line-20">
    <rect x="0" y="489.5" width="1342" height="24.65"/>
            </clipPath>
<clipPath id="terminal-2854313290-line-21">
    <rect x="0" y="513.9" width="1342" height="24.65"/>
            </clipPath>
<clipPath id="terminal-2854313290-line-22">
    <rect x="0" y="538.3" width="1342" height="24.65"/>
            </clipPath>
<clipPath id="terminal-2854313290-line-23">
    <rect x="0" y="562.7" width="1342" height="24.65"/>
            </clipPath>
<clipPath id="terminal-2854313290-line-24">
    <rect x="0" y="587.1" width="1342" height="24.65"/>
            </clipPath>
<clipPath id="terminal-2854313290-line-25">
    <rect x="0" y="611.5" width="1342" height="24.65"/>
            </clipPath>
<clipPath id="terminal-2854313290-line-26">
    <rect x="0" y="635.9" width="1342" height="24.65"/>
            </clipPath>
<clipPath id="terminal-2854313290-line-27">
    <rect x="0" y="660.3" width="1342" height="24.65"/>
            </clipPath>
<clipPath id="terminal-2854313290-line-28">
    <rect x="0" y="684.7" width="1342" height="24.65"/>
            </clipPath>
<clipPath id="terminal-2854313290-line-29">
    <rect x="0" y="709.1" width="1342" height="24.65"/>
            </clipPath>
<clipPath id="terminal-2854313290-line-30">
    <rect x="0" y="733.5" width="1342" height="24.65"/>
            </clipPath>
<clipPath id="terminal-2854313290-line-31">
    <rect x="0" y="757.9" width="1342" height="24.65"/>
            </clipPath>
<clipPath id="terminal-2854313290-line-32">
    <rect x="0" y="782.3" width="1342" height="24.65"/>
            </clipPath>
    </defs>

    <rect fill="#292929" stroke="rgba(255,255,255,0.35)" stroke-width="1" x="1" y="1" width="1358" height="877.6" rx="8"/><text class="terminal-2854313290-title" fill="#c5c8c6" text-anchor="middle" x="679" y="27">STA</text>
            <g transform="translate(26,22)">
            <circle cx="0" cy="0" r="7" fill="#ff5f57"/>
            <circle cx="22" cy="0" r="7" fill="#febc2e"/>
            <circle cx="44" cy="0" r="7" fill="#28c840"/>
            </g>

    <g transform="translate(9, 41)" clip-path="url(#terminal-2854313290-clip-terminal)">
    <rect fill="#1a1a1a" x="0" y="1.5" width="1342" height="24.65" shape-rendering="crispEdges"/><rect fill="#1a1a1a" x="0" y="25.9" width="24.4" height="24.65" shape-rendering="crispEdges"/><rect fill="#1a1a1a" x="24.4" y="25.9" width="1293.2" height="24.65" shape-rendering="crispEdges"/><rect fill="#1a1a1a" x="1317.6" y="25.9" width="24.4" height="24.65" shape-rendering="crispEdges"/><rect fill="#1a1a1a" x="0" y="50.3" width="24.4" height="24.65" shape-rendering="crispEdges"/><rect fill="#1a1a1a" x="24.4" y="50.3" width="12.2" height="24.65" shape-rendering="crispEdges"/><rect fill="#1a1a1a" x="36.6" y="50.3" width="12.2" height="24.65" shape-rendering="crispEdges"/><rect fill="#1a1a1a" x="48.8" y="50.3" width="500.2" height="24.65" shape-rendering="crispEdges"/><rect fill="#1a1a1a" x="549" y="50.3" width="768.6" height="24.65" shape-rendering="crispEdges"/><rect fill="#1a1a1a" x="1317.6" y="50.3" width="24.4" height="24.65" shape-rendering="crispEdges"/><rect fill="#1a1a1a" x="0" y="74.7" width="24.4" height="24.65" shape-rendering="crispEdges"/><rect fill="#1a1a1a" x="24.4" y="74.7" width="12.2" height="24.65" shape-rendering="crispEdges"/><rect fill="#1a1a1a" x="36.6" y="74.7" width="12.2" height="24.65" shape-rendering="crispEdges"/><rect fill="#1a1a1a" x="48.8" y="74.7" width="597.8" height="24.65" shape-rendering="crispEdges"/><rect fill="#1a1a1a" x="646.6" y="74.7" width="671" height="24.65" shape-rendering="crispEdges"/><rect fill="#1a1a1a" x="1317.6" y="74.7" width="24.4" height="24.65" shape-rendering="crispEdges"/><rect fill="#1a1a1a" x="0" y="99.1" width="24.4" height="24.65" shape-rendering="crispEdges"/><rect fill="#1a1a1a" x="24.4" y="99.1" width="1293.2" height="24.65" shape-rendering="crispEdges"/><rect fill="#1a1a1a" x="1317.6" y="99.1" width="24.4" height="24.65" shape-rendering="crispEdges"/><rect fill="#1a1a1a" x="0" y="123.5" width="24.4" height="24.65" shape-rendering="crispEdges"/><rect fill="#1a1a1a" x="24.4" y="123.5" width="12.2" height="24.65" shape-rendering="crispEdges"/><rect fill="#1a1a1a" x="36.6" y="123.5" width="12.2" height="24.65" shape-rendering="crispEdges"/><rect fill="#1a1a1a" x="48.8" y="123.5" width="12.2" height="24.65" shape-rendering="crispEdges"/><rect fill="#1a1a1a" x="61" y="123.5" width="378.2" height="24.65" shape-rendering="crispEdges"/><rect fill="#1a1a1a" x="439.2" y="123.5" width="878.4" height="24.65" shape-rendering="crispEdges"/><rect fill="#1a1a1a" x="1317.6" y="123.5" width="24.4" height="24.65" shape-rendering="crispEdges"/><rect fill="#1a1a1a" x="0" y="147.9" width="24.4" height="24.65" shape-rendering="crispEdges"/><rect fill="#1a1a1a" x="24.4" y="147.9" width="12.2" height="24.65" shape-rendering="crispEdges"/><rect fill="#1a1a1a" x="36.6" y="147.9" width="12.2" height="24.65" shape-rendering="crispEdges"/><rect fill="#1a1a1a" x="48.8" y="147.9" width="12.2" height="24.65" shape-rendering="crispEdges"/><rect fill="#1a1a1a" x="61" y="147.9" width="353.8" height="24.65" shape-rendering="crispEdges"/><rect fill="#1a1a1a" x="414.8" y="147.9" width="902.8" height="24.65" shape-rendering="crispEdges"/><rect fill="#1a1a1a" x="1317.6" y="147.9" width="24.4" height="24.65" shape-rendering="crispEdges"/><rect fill="#1a1a1a" x="0" y="172.3" width="24.4" height="24.65" shape-rendering="crispEdges"/><rect fill="#1a1a1a" x="24.4" y="172.3" width="12.2" height="24.65" shape-rendering="crispEdges"/><rect fill="#1a1a1a" x="36.6" y="172.3" width="12.2" height="24.65" shape-rendering="crispEdges"/><rect fill="#1a1a1a" x="48.8" y="172.3" width="12.2" height="24.65" shape-rendering="crispEdges"/><rect fill="#1a1a1a" x="61" y="172.3" width="280.6" height="24.65" shape-rendering="crispEdges"/><rect fill="#1a1a1a" x="341.6" y="172.3" width="976" height="24.65" shape-rendering="crispEdges"/><rect fill="#1a1a1a" x="1317.6" y="172.3" width="24.4" height="24.65" shape-rendering="crispEdges"/><rect fill="#1a1a1a" x="0" y="196.7" width="24.4" height="24.65" shape-rendering="crispEdges"/><rect fill="#1a1a1a" x="24.4" y="196.7" width="1293.2" height="24.65" shape-rendering="crispEdges"/><rect fill="#1a1a1a" x="1317.6" y="196.7" width="24.4" height="24.65" shape-rendering="crispEdges"/><rect fill="#1a1a1a" x="0" y="221.1" width="24.4" height="24.65" shape-rendering="crispEdges"/><rect fill="#1a1a1a" x="24.4" y="221.1" width="1293.2" height="24.65" shape-rendering="crispEdges"/><rect fill="#1a1a1a" x="1317.6" y="221.1" width="24.4" height="24.65" shape-rendering="crispEdges"/><rect fill="#1a1a1a" x="0" y="245.5" width="24.4" height="24.65" shape-rendering="crispEdges"/><rect fill="#1a1a1a" x="24.4" y="245.5" width="1293.2" height="24.65" shape-rendering="crispEdges"/><rect fill="#1a1a1a" x="1317.6" y="245.5" width="24.4" height="24.65" shape-rendering="crispEdges"/><rect fill="#1a1a1a" x="0" y="269.9" width="24.4" height="24.65" shape-rendering="crispEdges"/><rect fill="#1a1a1a" x="24.4" y="269.9" width="1293.2" height="24.65" shape-rendering="crispEdges"/><rect fill="#1a1a1a" x="1317.6" y="269.9" width="24.4" height="24.65" shape-rendering="crispEdges"/><rect fill="#1a1a1a" x="0" y="294.3" width="24.4" height="24.65" shape-rendering="crispEdges"/><rect fill="#1a1a1a" x="24.4" y="294.3" width="1293.2" height="24.65" shape-rendering="crispEdges"/><rect fill="#1a1a1a" x="1317.6" y="294.3" width="24.4" height="24.65" shape-rendering="crispEdges"/><rect fill="#1a1a1a" x="0" y="318.7" width="24.4" height="24.65" shape-rendering="crispEdges"/><rect fill="#1a1a1a" x="24.4" y="318.7" width="1293.2" height="24.65" shape-rendering="crispEdges"/><rect fill="#1a1a1a" x="1317.6" y="318.7" width="24.4" height="24.65" shape-rendering="crispEdges"/><rect fill="#1a1a1a" x="0" y="343.1" width="24.4" height="24.65" shape-rendering="crispEdges"/><rect fill="#1a1a1a" x="24.4" y="343.1" width="1293.2" height="24.65" shape-rendering="crispEdges"/><rect fill="#1a1a1a" x="1317.6" y="343.1" width="24.4" height="24.65" shape-rendering="crispEdges"/><rect fill="#1a1a1a" x="0" y="367.5" width="24.4" height="24.65" shape-rendering="crispEdges"/><rect fill="#1a1a1a" x="24.4" y="367.5" width="1293.2" height="24.65" shape-rendering="crispEdges"/><rect fill="#1a1a1a" x="1317.6" y="367.5" width="24.4" height="24.65" shape-rendering="crispEdges"/><rect fill="#1a1a1a" x="0" y="391.9" width="24.4" height="24.65" shape-rendering="crispEdges"/><rect fill="#1a1a1a" x="24.4" y="391.9" width="1293.2" height="24.65" shape-rendering="crispEdges"/><rect fill="#1a1a1a" x="1317.6" y="391.9" width="24.4" height="24.65" shape-rendering="crispEdges"/><rect fill="#1a1a1a" x="0" y="416.3" width="24.4" height="24.65" shape-rendering="crispEdges"/><rect fill="#1a1a1a" x="24.4" y="416.3" width="1293.2" height="24.65" shape-rendering="crispEdges"/><rect fill="#1a1a1a" x="1317.6" y="416.3" width="24.4" height="24.65" shape-rendering="crispEdges"/><rect fill="#1a1a1a" x="0" y="440.7" width="12.2" height="24.65" shape-rendering="crispEdges"/><rect fill="#242424" x="12.2" y="440.7" width="12.2" height="24.65" shape-rendering="crispEdges"/><rect fill="#242424" x="24.4" y="440.7" width="1293.2" height="24.65" shape-rendering="crispEdges"/><rect fill="#242424" x="1317.6" y="440.7" width="12.2" height="24.65" shape-rendering="crispEdges"/><rect fill="#1a1a1a" x="1329.8" y="440.7" width="12.2" height="24.65" shape-rendering="crispEdges"/><rect fill="#1a1a1a" x="0" y="465.1" width="12.2" height="24.65" shape-rendering="crispEdges"/><rect fill="#242424" x="12.2" y="465.1" width="12.2" height="24.65" shape-rendering="crispEdges"/><rect fill="#242424" x="24.4" y="465.1" width="12.2" height="24.65" shape-rendering="crispEdges"/><rect fill="#242424" x="36.6" y="465.1" width="268.4" height="24.65" shape-rendering="crispEdges"/><rect fill="#242424" x="305" y="465.1" width="1000.4" height="24.65" shape-rendering="crispEdges"/><rect fill="#242424" x="1305.4" y="465.1" width="12.2" height="24.65" shape-rendering="crispEdges"/><rect fill="#242424" x="1317.6" y="465.1" width="12.2" height="24.65" shape-rendering="crispEdges"/><rect fill="#1a1a1a" x="1329.8" y="465.1" width="12.2" height="24.65" shape-rendering="crispEdges"/><rect fill="#1a1a1a" x="0" y="489.5" width="12.2" height="24.65" shape-rendering="crispEdges"/><rect fill="#242424" x="12.2" y="489.5" width="12.2" height="24.65" shape-rendering="crispEdges"/><rect fill="#242424" x="24.4" y="489.5" width="12.2" height="24.65" shape-rendering="crispEdges"/><rect fill="#242424" x="36.6" y="489.5" width="207.4" height="24.65" shape-rendering="crispEdges"/><rect fill="#242424" x="244" y="489.5" width="1061.4" height="24.65" shape-rendering="crispEdges"/><rect fill="#242424" x="1305.4" y="489.5" width="12.2" height="24.65" shape-rendering="crispEdges"/><rect fill="#242424" x="1317.6" y="489.5" width="12.2" height="24.65" shape-rendering="crispEdges"/><rect fill="#1a1a1a" x="1329.8" y="489.5" width="12.2" height="24.65" shape-rendering="crispEdges"/><rect fill="#1a1a1a" x="0" y="513.9" width="12.2" height="24.65" shape-rendering="crispEdges"/><rect fill="#242424" x="12.2" y="513.9" width="12.2" height="24.65" shape-rendering="crispEdges"/><rect fill="#242424" x="24.4" y="513.9" width="12.2" height="24.65" shape-rendering="crispEdges"/><rect fill="#242424" x="36.6" y="513.9" width="207.4" height="24.65" shape-rendering="crispEdges"/><rect fill="#242424" x="244" y="513.9" width="1061.4" height="24.65" shape-rendering="crispEdges"/><rect fill="#242424" x="1305.4" y="513.9" width="12.2" height="24.65" shape-rendering="crispEdges"/><rect fill="#242424" x="1317.6" y="513.9" width="12.2" height="24.65" shape-rendering="crispEdges"/><rect fill="#1a1a1a" x="1329.8" y="513.9" width="12.2" height="24.65" shape-rendering="crispEdges"/><rect fill="#1a1a1a" x="0" y="538.3" width="12.2" height="24.65" shape-rendering="crispEdges"/><rect fill="#242424" x="12.2" y="538.3" width="12.2" height="24.65" shape-rendering="crispEdges"/><rect fill="#242424" x="24.4" y="538.3" width="12.2" height="24.65" shape-rendering="crispEdges"/><rect fill="#242424" x="36.6" y="538.3" width="195.2" height="24.65" shape-rendering="crispEdges"/><rect fill="#242424" x="231.8" y="538.3" width="1073.6" height="24.65" shape-rendering="crispEdges"/><rect fill="#242424" x="1305.4" y="538.3" width="12.2" height="24.65" shape-rendering="crispEdges"/><rect fill="#242424" x="1317.6" y="538.3" width="12.2" height="24.65" shape-rendering="crispEdges"/><rect fill="#1a1a1a" x="1329.8" y="538.3" width="12.2" height="24.65" shape-rendering="crispEdges"/><rect fill="#1a1a1a" x="0" y="562.7" width="12.2" height="24.65" shape-rendering="crispEdges"/><rect fill="#242424" x="12.2" y="562.7" width="12.2" height="24.65" shape-rendering="crispEdges"/><rect fill="#242424" x="24.4" y="562.7" width="12.2" height="24.65" shape-rendering="crispEdges"/><rect fill="#242424" x="36.6" y="562.7" width="195.2" height="24.65" shape-rendering="crispEdges"/><rect fill="#242424" x="231.8" y="562.7" width="1073.6" height="24.65" shape-rendering="crispEdges"/><rect fill="#242424" x="1305.4" y="562.7" width="12.2" height="24.65" shape-rendering="crispEdges"/><rect fill="#242424" x="1317.6" y="562.7" width="12.2" height="24.65" shape-rendering="crispEdges"/><rect fill="#1a1a1a" x="1329.8" y="562.7" width="12.2" height="24.65" shape-rendering="crispEdges"/><rect fill="#1a1a1a" x="0" y="587.1" width="12.2" height="24.65" shape-rendering="crispEdges"/><rect fill="#242424" x="12.2" y="587.1" width="12.2" height="24.65" shape-rendering="crispEdges"/><rect fill="#242424" x="24.4" y="587.1" width="12.2" height="24.65" shape-rendering="crispEdges"/><rect fill="#242424" x="36.6" y="587.1" width="536.8" height="24.65" shape-rendering="crispEdges"/><rect fill="#242424" x="573.4" y="587.1" width="732" height="24.65" shape-rendering="crispEdges"/><rect fill="#242424" x="1305.4" y="587.1" width="12.2" height="24.65" shape-rendering="crispEdges"/><rect fill="#242424" x="1317.6" y="587.1" width="12.2" height="24.65" shape-rendering="crispEdges"/><rect fill="#1a1a1a" x="1329.8" y="587.1" width="12.2" height="24.65" shape-rendering="crispEdges"/><rect fill="#1a1a1a" x="0" y="611.5" width="12.2" height="24.65" shape-rendering="crispEdges"/><rect fill="#242424" x="12.2" y="611.5" width="12.2" height="24.65" shape-rendering="crispEdges"/><rect fill="#242424" x="24.4" y="611.5" width="12.2" height="24.65" shape-rendering="crispEdges"/><rect fill="#8a8a8a" x="36.6" y="611.5" width="12.2" height="24.65" shape-rendering="crispEdges"/><rect fill="#8a8a8a" x="48.8" y="611.5" width="170.8" height="24.65" shape-rendering="crispEdges"/><rect fill="#8a8a8a" x="219.6" y="611.5" width="1073.6" height="24.65" shape-rendering="crispEdges"/><rect fill="#8a8a8a" x="1293.2" y="611.5" width="12.2" height="24.65" shape-rendering="crispEdges"/><rect fill="#242424" x="1305.4" y="611.5" width="12.2" height="24.65" shape-rendering="crispEdges"/><rect fill="#242424" x="1317.6" y="611.5" width="12.2" height="24.65" shape-rendering="crispEdges"/><rect fill="#1a1a1a" x="1329.8" y="611.5" width="12.2" height="24.65" shape-rendering="crispEdges"/><rect fill="#1a1a1a" x="0" y="635.9" width="12.2" height="24.65" shape-rendering="crispEdges"/><rect fill="#242424" x="12.2" y="635.9" width="12.2" height="24.65" shape-rendering="crispEdges"/><rect fill="#242424" x="24.4" y="635.9" width="12.2" height="24.65" shape-rendering="crispEdges"/><rect fill="#242424" x="36.6" y="635.9" width="12.2" height="24.65" shape-rendering="crispEdges"/><rect fill="#242424" x="48.8" y="635.9" width="268.4" height="24.65" shape-rendering="crispEdges"/><rect fill="#242424" x="317.2" y="635.9" width="976" height="24.65" shape-rendering="crispEdges"/><rect fill="#242424" x="1293.2" y="635.9" width="12.2" height="24.65" shape-rendering="crispEdges"/><rect fill="#242424" x="1305.4" y="635.9" width="12.2" height="24.65" shape-rendering="crispEdges"/><rect fill="#242424" x="1317.6" y="635.9" width="12.2" height="24.65" shape-rendering="crispEdges"/><rect fill="#1a1a1a" x="1329.8" y="635.9" width="12.2" height="24.65" shape-rendering="crispEdges"/><rect fill="#1a1a1a" x="0" y="660.3" width="12.2" height="24.65" shape-rendering="crispEdges"/><rect fill="#242424" x="12.2" y="660.3" width="12.2" height="24.65" shape-rendering="crispEdges"/><rect fill="#242424" x="24.4" y="660.3" width="12.2" height="24.65" shape-rendering="crispEdges"/><rect fill="#242424" x="36.6" y="660.3" width="12.2" height="24.65" shape-rendering="crispEdges"/><rect fill="#242424" x="48.8" y="660.3" width="170.8" height="24.65" shape-rendering="crispEdges"/><rect fill="#242424" x="219.6" y="660.3" width="1073.6" height="24.65" shape-rendering="crispEdges"/><rect fill="#242424" x="1293.2" y="660.3" width="12.2" height="24.65" shape-rendering="crispEdges"/><rect fill="#242424" x="1305.4" y="660.3" width="12.2" height="24.65" shape-rendering="crispEdges"/><rect fill="#242424" x="1317.6" y="660.3" width="12.2" height="24.65" shape-rendering="crispEdges"/><rect fill="#1a1a1a" x="1329.8" y="660.3" width="12.2" height="24.65" shape-rendering="crispEdges"/><rect fill="#1a1a1a" x="0" y="684.7" width="12.2" height="24.65" shape-rendering="crispEdges"/><rect fill="#242424" x="12.2" y="684.7" width="12.2" height="24.65" shape-rendering="crispEdges"/><rect fill="#242424" x="24.4" y="684.7" width="1293.2" height="24.65" shape-rendering="crispEdges"/><rect fill="#242424" x="1317.6" y="684.7" width="12.2" height="24.65" shape-rendering="crispEdges"/><rect fill="#1a1a1a" x="1329.8" y="684.7" width="12.2" height="24.65" shape-rendering="crispEdges"/><rect fill="#1a1a1a" x="0" y="709.1" width="12.2" height="24.65" shape-rendering="crispEdges"/><rect fill="#1a1a1a" x="12.2" y="709.1" width="1317.6" height="24.65" shape-rendering="crispEdges"/><rect fill="#1a1a1a" x="1329.8" y="709.1" width="12.2" height="24.65" shape-rendering="crispEdges"/><rect fill="#1a1a1a" x="0" y="733.5" width="12.2" height="24.65" shape-rendering="crispEdges"/><rect fill="#1a1a1a" x="12.2" y="733.5" width="12.2" height="24.65" shape-rendering="crispEdges"/><rect fill="#1a1a1a" x="24.4" y="733.5" width="12.2" height="24.65" shape-rendering="crispEdges"/><rect fill="#1a1a1a" x="36.6" y="733.5" width="12.2" height="24.65" shape-rendering="crispEdges"/><rect fill="#1a1a1a" x="48.8" y="733.5" width="317.2" height="24.65" shape-rendering="crispEdges"/><rect fill="#1a1a1a" x="366" y="733.5" width="951.6" height="24.65" shape-rendering="crispEdges"/><rect fill="#1a1a1a" x="1317.6" y="733.5" width="12.2" height="24.65" shape-rendering="crispEdges"/><rect fill="#1a1a1a" x="1329.8" y="733.5" width="12.2" height="24.65" shape-rendering="crispEdges"/><rect fill="#1a1a1a" x="0" y="757.9" width="12.2" height="24.65" shape-rendering="crispEdges"/><rect fill="#1a1a1a" x="12.2" y="757.9" width="1317.6" height="24.65" shape-rendering="crispEdges"/><rect fill="#1a1a1a" x="1329.8" y="757.9" width="12.2" height="24.65" shape-rendering="crispEdges"/><rect fill="#1a1a1a" x="0" y="782.3" width="12.2" height="24.65" shape-rendering="crispEdges"/><rect fill="#1a1a1a" x="12.2" y="782.3" width="12.2" height="24.65" shape-rendering="crispEdges"/><rect fill="#1a1a1a" x="24.4" y="782.3" width="549" height="24.65" shape-rendering="crispEdges"/><rect fill="#1a1a1a" x="573.4" y="782.3" width="744.2" height="24.65" shape-rendering="crispEdges"/><rect fill="#1a1a1a" x="1317.6" y="782.3" width="12.2" height="24.65" shape-rendering="crispEdges"/><rect fill="#1a1a1a" x="1329.8" y="782.3" width="12.2" height="24.65" shape-rendering="crispEdges"/><rect fill="#1a1a1a" x="0" y="806.7" width="12.2" height="24.65" shape-rendering="crispEdges"/><rect fill="#1a1a1a" x="12.2" y="806.7" width="122" height="24.65" shape-rendering="crispEdges"/><rect fill="#1a1a1a" x="134.2" y="806.7" width="195.2" height="24.65" shape-rendering="crispEdges"/><rect fill="#1a1a1a" x="329.4" y="806.7" width="146.4" height="24.65" shape-rendering="crispEdges"/><rect fill="#1a1a1a" x="475.8" y="806.7" width="219.6" height="24.65" shape-rendering="crispEdges"/><rect fill="#1a1a1a" x="695.4" y="806.7" width="634.4" height="24.65" shape-rendering="crispEdges"/><rect fill="#1a1a1a" x="1329.8" y="806.7" width="12.2" height="24.65" shape-rendering="crispEdges"/>
    <g class="terminal-2854313290-matrix">
    <text class="terminal-2854313290-r1" x="1342" y="20" textLength="12.2" clip-path="url(#terminal-2854313290-line-0)">
</text><text class="terminal-2854313290-r1" x="1342" y="44.4" textLength="12.2" clip-path="url(#terminal-2854313290-line-1)">
</text><text class="terminal-2854313290-r2" x="24.4" y="68.8" textLength="12.2" clip-path="url(#terminal-2854313290-line-2)">█</text><text class="terminal-2854313290-r3" x="48.8" y="68.8" textLength="256.2" clip-path="url(#terminal-2854313290-line-2)">👤&#160;检查配置读取，并修复默认值不一致的问题</text><text class="terminal-2854313290-r1" x="1342" y="68.8" textLength="12.2" clip-path="url(#terminal-2854313290-line-2)">
</text><text class="terminal-2854313290-r4" x="24.4" y="93.2" textLength="12.2" clip-path="url(#terminal-2854313290-line-3)">█</text><text class="terminal-2854313290-r5" x="48.8" y="93.2" textLength="305" clip-path="url(#terminal-2854313290-line-3)">🤖&#160;已确认默认配置来源不一致，准备统一到配置模型。</text><text class="terminal-2854313290-r1" x="1342" y="93.2" textLength="12.2" clip-path="url(#terminal-2854313290-line-3)">
</text><text class="terminal-2854313290-r1" x="1342" y="117.6" textLength="12.2" clip-path="url(#terminal-2854313290-line-4)">
</text><text class="terminal-2854313290-r6" x="36.6" y="142" textLength="12.2" clip-path="url(#terminal-2854313290-line-5)">│</text><text class="terminal-2854313290-r7" x="61" y="142" textLength="378.2" clip-path="url(#terminal-2854313290-line-5)">●&#160;read_file(path=src/config.py)</text><text class="terminal-2854313290-r1" x="1342" y="142" textLength="12.2" clip-path="url(#terminal-2854313290-line-5)">
</text><text class="terminal-2854313290-r6" x="36.6" y="166.4" textLength="12.2" clip-path="url(#terminal-2854313290-line-6)">│</text><text class="terminal-2854313290-r7" x="61" y="166.4" textLength="341.6" clip-path="url(#terminal-2854313290-line-6)">&#160;&#160;⎿&#160;✓&#160;class&#160;AppConfig:&#160;·&#160;2&#160;行</text><text class="terminal-2854313290-r1" x="1342" y="166.4" textLength="12.2" clip-path="url(#terminal-2854313290-line-6)">
</text><text class="terminal-2854313290-r6" x="36.6" y="190.8" textLength="12.2" clip-path="url(#terminal-2854313290-line-7)">│</text><text class="terminal-2854313290-r7" x="61" y="190.8" textLength="231.8" clip-path="url(#terminal-2854313290-line-7)">&#160;&#160;▸&#160;展开&#160;·&#160;点击&#160;/&#160;Enter</text><text class="terminal-2854313290-r1" x="1342" y="190.8" textLength="12.2" clip-path="url(#terminal-2854313290-line-7)">
</text><text class="terminal-2854313290-r1" x="1342" y="215.2" textLength="12.2" clip-path="url(#terminal-2854313290-line-8)">
</text><text class="terminal-2854313290-r1" x="1342" y="239.6" textLength="12.2" clip-path="url(#terminal-2854313290-line-9)">
</text><text class="terminal-2854313290-r1" x="1342" y="264" textLength="12.2" clip-path="url(#terminal-2854313290-line-10)">
</text><text class="terminal-2854313290-r1" x="1342" y="288.4" textLength="12.2" clip-path="url(#terminal-2854313290-line-11)">
</text><text class="terminal-2854313290-r1" x="1342" y="312.8" textLength="12.2" clip-path="url(#terminal-2854313290-line-12)">
</text><text class="terminal-2854313290-r1" x="1342" y="337.2" textLength="12.2" clip-path="url(#terminal-2854313290-line-13)">
</text><text class="terminal-2854313290-r1" x="1342" y="361.6" textLength="12.2" clip-path="url(#terminal-2854313290-line-14)">
</text><text class="terminal-2854313290-r1" x="1342" y="386" textLength="12.2" clip-path="url(#terminal-2854313290-line-15)">
</text><text class="terminal-2854313290-r1" x="1342" y="410.4" textLength="12.2" clip-path="url(#terminal-2854313290-line-16)">
</text><text class="terminal-2854313290-r1" x="1342" y="434.8" textLength="12.2" clip-path="url(#terminal-2854313290-line-17)">
</text><text class="terminal-2854313290-r8" x="12.2" y="459.2" textLength="12.2" clip-path="url(#terminal-2854313290-line-18)">┌</text><text class="terminal-2854313290-r8" x="24.4" y="459.2" textLength="1293.2" clip-path="url(#terminal-2854313290-line-18)">──────────────────────────────────────────────────────────────────────────────────────────────────────────</text><text class="terminal-2854313290-r8" x="1317.6" y="459.2" textLength="12.2" clip-path="url(#terminal-2854313290-line-18)">┐</text><text class="terminal-2854313290-r1" x="1342" y="459.2" textLength="12.2" clip-path="url(#terminal-2854313290-line-18)">
</text><text class="terminal-2854313290-r8" x="12.2" y="483.6" textLength="12.2" clip-path="url(#terminal-2854313290-line-19)">│</text><text class="terminal-2854313290-r9" x="36.6" y="483.6" textLength="219.6" clip-path="url(#terminal-2854313290-line-19)">⚠&#160;需要确认&#160;·&#160;edit_file</text><text class="terminal-2854313290-r8" x="1317.6" y="483.6" textLength="12.2" clip-path="url(#terminal-2854313290-line-19)">│</text><text class="terminal-2854313290-r1" x="1342" y="483.6" textLength="12.2" clip-path="url(#terminal-2854313290-line-19)">
</text><text class="terminal-2854313290-r8" x="12.2" y="508" textLength="12.2" clip-path="url(#terminal-2854313290-line-20)">│</text><text class="terminal-2854313290-r9" x="36.6" y="508" textLength="207.4" clip-path="url(#terminal-2854313290-line-20)">---&#160;src/config.py</text><text class="terminal-2854313290-r8" x="1317.6" y="508" textLength="12.2" clip-path="url(#terminal-2854313290-line-20)">│</text><text class="terminal-2854313290-r1" x="1342" y="508" textLength="12.2" clip-path="url(#terminal-2854313290-line-20)">
</text><text class="terminal-2854313290-r8" x="12.2" y="532.4" textLength="12.2" clip-path="url(#terminal-2854313290-line-21)">│</text><text class="terminal-2854313290-r9" x="36.6" y="532.4" textLength="207.4" clip-path="url(#terminal-2854313290-line-21)">+++&#160;src/config.py</text><text class="terminal-2854313290-r8" x="1317.6" y="532.4" textLength="12.2" clip-path="url(#terminal-2854313290-line-21)">│</text><text class="terminal-2854313290-r1" x="1342" y="532.4" textLength="12.2" clip-path="url(#terminal-2854313290-line-21)">
</text><text class="terminal-2854313290-r8" x="12.2" y="556.8" textLength="12.2" clip-path="url(#terminal-2854313290-line-22)">│</text><text class="terminal-2854313290-r9" x="36.6" y="556.8" textLength="195.2" clip-path="url(#terminal-2854313290-line-22)">-&#160;max_turns&#160;=&#160;20</text><text class="terminal-2854313290-r8" x="1317.6" y="556.8" textLength="12.2" clip-path="url(#terminal-2854313290-line-22)">│</text><text class="terminal-2854313290-r1" x="1342" y="556.8" textLength="12.2" clip-path="url(#terminal-2854313290-line-22)">
</text><text class="terminal-2854313290-r8" x="12.2" y="581.2" textLength="12.2" clip-path="url(#terminal-2854313290-line-23)">│</text><text class="terminal-2854313290-r9" x="36.6" y="581.2" textLength="195.2" clip-path="url(#terminal-2854313290-line-23)">+&#160;max_turns&#160;=&#160;50</text><text class="terminal-2854313290-r8" x="1317.6" y="581.2" textLength="12.2" clip-path="url(#terminal-2854313290-line-23)">│</text><text class="terminal-2854313290-r1" x="1342" y="581.2" textLength="12.2" clip-path="url(#terminal-2854313290-line-23)">
</text><text class="terminal-2854313290-r8" x="12.2" y="605.6" textLength="12.2" clip-path="url(#terminal-2854313290-line-24)">│</text><text class="terminal-2854313290-r10" x="36.6" y="605.6" textLength="427" clip-path="url(#terminal-2854313290-line-24)">&#160;↑↓&#160;·&#160;Enter&#160;·&#160;Y&#160;同意&#160;·&#160;A&#160;本会话全允&#160;·&#160;N&#160;拒绝</text><text class="terminal-2854313290-r8" x="1317.6" y="605.6" textLength="12.2" clip-path="url(#terminal-2854313290-line-24)">│</text><text class="terminal-2854313290-r1" x="1342" y="605.6" textLength="12.2" clip-path="url(#terminal-2854313290-line-24)">
</text><text class="terminal-2854313290-r8" x="12.2" y="630" textLength="12.2" clip-path="url(#terminal-2854313290-line-25)">│</text><text class="terminal-2854313290-r11" x="48.8" y="630" textLength="122" clip-path="url(#terminal-2854313290-line-25)">&#160;❯&#160;1.&#160;确认执行</text><text class="terminal-2854313290-r8" x="1317.6" y="630" textLength="12.2" clip-path="url(#terminal-2854313290-line-25)">│</text><text class="terminal-2854313290-r1" x="1342" y="630" textLength="12.2" clip-path="url(#terminal-2854313290-line-25)">
</text><text class="terminal-2854313290-r8" x="12.2" y="654.4" textLength="12.2" clip-path="url(#terminal-2854313290-line-26)">│</text><text class="terminal-2854313290-r12" x="48.8" y="654.4" textLength="170.8" clip-path="url(#terminal-2854313290-line-26)">&#160;&#160;&#160;2.&#160;本次会话全部允许</text><text class="terminal-2854313290-r8" x="1317.6" y="654.4" textLength="12.2" clip-path="url(#terminal-2854313290-line-26)">│</text><text class="terminal-2854313290-r1" x="1342" y="654.4" textLength="12.2" clip-path="url(#terminal-2854313290-line-26)">
</text><text class="terminal-2854313290-r8" x="12.2" y="678.8" textLength="12.2" clip-path="url(#terminal-2854313290-line-27)">│</text><text class="terminal-2854313290-r12" x="48.8" y="678.8" textLength="122" clip-path="url(#terminal-2854313290-line-27)">&#160;&#160;&#160;3.&#160;拒绝执行</text><text class="terminal-2854313290-r8" x="1317.6" y="678.8" textLength="12.2" clip-path="url(#terminal-2854313290-line-27)">│</text><text class="terminal-2854313290-r1" x="1342" y="678.8" textLength="12.2" clip-path="url(#terminal-2854313290-line-27)">
</text><text class="terminal-2854313290-r8" x="12.2" y="703.2" textLength="12.2" clip-path="url(#terminal-2854313290-line-28)">└</text><text class="terminal-2854313290-r8" x="24.4" y="703.2" textLength="1293.2" clip-path="url(#terminal-2854313290-line-28)">──────────────────────────────────────────────────────────────────────────────────────────────────────────</text><text class="terminal-2854313290-r8" x="1317.6" y="703.2" textLength="12.2" clip-path="url(#terminal-2854313290-line-28)">┘</text><text class="terminal-2854313290-r1" x="1342" y="703.2" textLength="12.2" clip-path="url(#terminal-2854313290-line-28)">
</text><text class="terminal-2854313290-r6" x="12.2" y="727.6" textLength="1317.6" clip-path="url(#terminal-2854313290-line-29)">────────────────────────────────────────────────────────────────────────────────────────────────────────────</text><text class="terminal-2854313290-r1" x="1342" y="727.6" textLength="12.2" clip-path="url(#terminal-2854313290-line-29)">
</text><text class="terminal-2854313290-r13" x="24.4" y="752" textLength="12.2" clip-path="url(#terminal-2854313290-line-30)">&gt;</text><text class="terminal-2854313290-r14" x="48.8" y="752" textLength="256.2" clip-path="url(#terminal-2854313290-line-30)">等待确认：↑↓+Enter&#160;·&#160;Y/A/N</text><text class="terminal-2854313290-r1" x="1342" y="752" textLength="12.2" clip-path="url(#terminal-2854313290-line-30)">
</text><text class="terminal-2854313290-r6" x="12.2" y="776.4" textLength="1317.6" clip-path="url(#terminal-2854313290-line-31)">────────────────────────────────────────────────────────────────────────────────────────────────────────────</text><text class="terminal-2854313290-r1" x="1342" y="776.4" textLength="12.2" clip-path="url(#terminal-2854313290-line-31)">
</text><text class="terminal-2854313290-r16" x="24.4" y="800.8" textLength="390.4" clip-path="url(#terminal-2854313290-line-32)">Y&#160;单次允许&#160;·&#160;A&#160;本会话允许&#160;·&#160;N&#160;拒绝&#160;·&#160;Esc&#160;停止</text><text class="terminal-2854313290-r1" x="1342" y="800.8" textLength="12.2" clip-path="url(#terminal-2854313290-line-32)">
</text><text class="terminal-2854313290-r8" x="12.2" y="825.2" textLength="73.2" clip-path="url(#terminal-2854313290-line-33)">●&#160;等待确认</text><text class="terminal-2854313290-r5" x="134.2" y="825.2" textLength="195.2" clip-path="url(#terminal-2854313290-line-33)">&#160;&#160;·&#160;&#160;gpt-4o-mini</text><text class="terminal-2854313290-r17" x="329.4" y="825.2" textLength="134.2" clip-path="url(#terminal-2854313290-line-33)">&#160;&#160;·&#160;&#160;0/50&#160;轮</text><text class="terminal-2854313290-r17" x="475.8" y="825.2" textLength="219.6" clip-path="url(#terminal-2854313290-line-33)">&#160;&#160;·&#160;&#160;openai_compat</text>
    </g>
    </g>
</svg>
